<svg xmlns="http://www.w3.org/2000/svg" version="1.1" xmlns:xlink="http://www.w3.org/1999/xlink" xmlns:svgjs="http://svgjs.dev/svgjs" width="1000" height="1000" viewBox="0 0 1000 1000"><rect width="1000" height="1000" fill="#dedede"></rect><g transform="matrix(0.7,0,0,0.7,149.57575757575756,407.25852107932025)"><svg viewBox="0 0 396 105" data-background-color="#dedede" preserveAspectRatio="xMidYMid meet" height="265" width="1000" xmlns="http://www.w3.org/2000/svg" xmlns:xlink="http://www.w3.org/1999/xlink"><g id="tight-bounds" transform="matrix(1,0,0,1,0.2400000000000091,-0.004823252445419257)"><svg viewBox="0 0 395.52 105.00964650489084" height="105.00964650489084" width="395.52"><g><svg viewBox="0 0 579.0765157414129 153.74347749112465" height="105.00964650489084" width="395.52"><g transform="matrix(1,0,0,1,183.5565157414129,45.30029750387719)"><svg viewBox="0 0 395.52 63.14288248337028" height="63.14288248337028" width="395.52"><g id="textblocktransform"><svg viewBox="0 0 395.52 63.14288248337028" height="63.14288248337028" width="395.52" id="textblock"><g><svg viewBox="0 0 395.52 63.14288248337028" height="63.14288248337028" width="395.52"><g transform="matrix(1,0,0,1,0,0)"><svg width="395.52" viewBox="1.9000000953674316 -35.5 225.49000549316406 36" height="63.14288248337028" data-palette-color="#374151"><path d="M14.6 0.5L14.6 0.5Q10.9 0.5 8.1-0.6 5.3-1.7 2.7-4.1L2.7-4.1Q2.35-4.45 2.13-4.88 1.9-5.3 1.9-5.8L1.9-5.8Q1.9-6.6 2.48-7.23 3.05-7.85 3.9-7.85L3.9-7.85Q4.6-7.85 5.15-7.3L5.15-7.3Q7.1-5.4 9.38-4.4 11.65-3.4 14.5-3.4L14.5-3.4Q16.7-3.4 18.48-4.1 20.25-4.8 21.3-6.05 22.35-7.3 22.35-8.95L22.35-8.95Q22.3-10.95 21.18-12.25 20.05-13.55 18.07-14.43 16.1-15.3 13.5-15.9L13.5-15.9Q11.2-16.45 9.28-17.25 7.35-18.05 5.95-19.23 4.55-20.4 3.78-22.08 3-23.75 3-26L3-26Q3-28.85 4.5-31 6-33.15 8.65-34.33 11.3-35.5 14.75-35.5L14.75-35.5Q17.8-35.5 20.53-34.5 23.25-33.5 24.9-31.75L24.9-31.75Q25.9-30.8 25.9-29.9L25.9-29.9Q25.9-29.15 25.28-28.53 24.65-27.9 23.85-27.9L23.85-27.9Q23.3-27.9 22.85-28.3L22.85-28.3Q22-29.25 20.7-30 19.4-30.75 17.85-31.2 16.3-31.65 14.75-31.65L14.75-31.65Q12.45-31.65 10.7-30.98 8.95-30.3 7.98-29.08 7-27.85 7-26.15L7-26.15Q7-24.25 8.1-23.03 9.2-21.8 11.05-21.03 12.9-20.25 15.15-19.65L15.15-19.65Q17.6-19.05 19.68-18.28 21.75-17.5 23.25-16.35 24.75-15.2 25.58-13.43 26.4-11.65 26.4-9.05L26.4-9.05Q26.4-6.3 24.85-4.15 23.3-2 20.63-0.78 17.95 0.45 14.6 0.5ZM35.2-35L35.2-35Q36.05-35 36.65-34.43 37.25-33.85 37.25-32.95L37.25-32.95 37.25-2.05Q37.25-1.2 36.62-0.6 36 0 35.15 0L35.15 0Q34.2 0 33.65-0.6 33.1-1.2 33.1-2.05L33.1-2.05 33.1-32.95Q33.1-33.85 33.7-34.43 34.3-35 35.2-35ZM58.25-35L58.25-35Q59.15-35 59.72-34.43 60.3-33.85 60.3-32.95L60.3-32.95 60.3-2.05Q60.3-1.2 59.7-0.6 59.1 0 58.2 0L58.2 0Q57.35 0 56.75-0.6 56.15-1.2 56.15-2.05L56.15-2.05 56.15-32.95Q56.15-33.85 56.77-34.43 57.4-35 58.25-35ZM34.85-15.85L35-19.75 58.3-19.75 58.25-15.85 34.85-15.85ZM100.65-17.5L100.65-17.5Q100.65-13.65 99.4-10.38 98.15-7.1 95.9-4.65 93.65-2.2 90.55-0.85 87.45 0.5 83.8 0.5L83.8 0.5Q80.1 0.5 77.02-0.85 73.95-2.2 71.7-4.65 69.45-7.1 68.2-10.38 66.95-13.65 66.95-17.5L66.95-17.5Q66.95-21.4 68.2-24.68 69.45-27.95 71.7-30.38 73.95-32.8 77.02-34.15 80.1-35.5 83.8-35.5L83.8-35.5Q87.45-35.5 90.55-34.15 93.65-32.8 95.9-30.38 98.15-27.95 99.4-24.68 100.65-21.4 100.65-17.5ZM96.35-17.5L96.35-17.5Q96.35-21.6 94.72-24.75 93.1-27.9 90.3-29.7 87.5-31.5 83.8-31.5L83.8-31.5Q80.1-31.5 77.27-29.7 74.45-27.9 72.85-24.75 71.25-21.6 71.25-17.5L71.25-17.5Q71.25-13.45 72.85-10.28 74.45-7.1 77.27-5.3 80.1-3.5 83.8-3.5L83.8-3.5Q87.5-3.5 90.3-5.3 93.1-7.1 94.72-10.28 96.35-13.45 96.35-17.5ZM138.84-17.5L138.84-17.5Q138.84-13.65 137.59-10.38 136.34-7.1 134.09-4.65 131.84-2.2 128.74-0.85 125.64 0.5 121.99 0.5L121.99 0.5Q118.29 0.5 115.22-0.85 112.14-2.2 109.89-4.65 107.64-7.1 106.39-10.38 105.14-13.65 105.14-17.5L105.14-17.5Q105.14-21.4 106.39-24.68 107.64-27.95 109.89-30.38 112.14-32.8 115.22-34.15 118.29-35.5 121.99-35.5L121.99-35.5Q125.64-35.5 128.74-34.15 131.84-32.8 134.09-30.38 136.34-27.95 137.59-24.68 138.84-21.4 138.84-17.5ZM134.54-17.5L134.54-17.5Q134.54-21.6 132.92-24.75 131.29-27.9 128.49-29.7 125.69-31.5 121.99-31.5L121.99-31.5Q118.29-31.5 115.47-29.7 112.64-27.9 111.04-24.75 109.44-21.6 109.44-17.5L109.44-17.5Q109.44-13.45 111.04-10.28 112.64-7.1 115.47-5.3 118.29-3.5 121.99-3.5L121.99-3.5Q125.69-3.5 128.49-5.3 131.29-7.1 132.92-10.28 134.54-13.45 134.54-17.5ZM146.34-35L168.29-35Q169.19-35 169.84-34.45 170.49-33.9 170.49-33.05L170.49-33.05Q170.49-32.4 170.04-31.8L170.04-31.8 148.54-3.5 148.24-3.85 168.09-3.85Q168.94-3.85 169.54-3.3 170.14-2.75 170.14-1.95L170.14-1.95Q170.14-1.1 169.54-0.55 168.94 0 168.09 0L168.09 0 144.84 0Q143.94 0 143.34-0.65 142.74-1.3 142.74-2L142.74-2Q142.74-2.65 143.19-3.25L143.19-3.25 164.64-31.45 165.04-31.2 146.34-31.2Q145.49-31.2 144.89-31.75 144.29-32.3 144.29-33.1L144.29-33.1Q144.29-33.95 144.89-34.48 145.49-35 146.34-35L146.34-35ZM179.04-35L179.04-35 196.84-35Q197.69-35 198.29-34.45 198.89-33.9 198.89-33.05L198.89-33.05Q198.89-32.2 198.29-31.68 197.69-31.15 196.84-31.15L196.84-31.15 180.74-31.15 181.19-32 181.19-19.35 180.69-19.9 194.59-19.9Q195.44-19.9 196.04-19.35 196.64-18.8 196.64-17.95L196.64-17.95Q196.64-17.1 196.04-16.57 195.44-16.05 194.59-16.05L194.59-16.05 180.84-16.05 181.19-16.5 181.19-3.55 180.89-3.9 196.84-3.9Q197.69-3.9 198.29-3.3 198.89-2.7 198.89-1.95L198.89-1.95Q198.89-1.1 198.29-0.55 197.69 0 196.84 0L196.84 0 179.04 0Q178.19 0 177.61-0.6 177.04-1.2 177.04-2.05L177.04-2.05 177.04-33Q177.04-33.85 177.61-34.43 178.19-35 179.04-35ZM207.54-35L207.54-35 225.34-35Q226.19-35 226.79-34.45 227.39-33.9 227.39-33.05L227.39-33.05Q227.39-32.2 226.79-31.68 226.19-31.15 225.34-31.15L225.34-31.15 209.24-31.15 209.69-32 209.69-19.35 209.19-19.9 223.09-19.9Q223.94-19.9 224.54-19.35 225.14-18.8 225.14-17.95L225.14-17.95Q225.14-17.1 224.54-16.57 223.94-16.05 223.09-16.05L223.09-16.05 209.34-16.05 209.69-16.5 209.69-3.55 209.39-3.9 225.34-3.9Q226.19-3.9 226.79-3.3 227.39-2.7 227.39-1.95L227.39-1.95Q227.39-1.1 226.79-0.55 226.19 0 225.34 0L225.34 0 207.54 0Q206.69 0 206.11-0.6 205.54-1.2 205.54-2.05L205.54-2.05 205.54-33Q205.54-33.85 206.11-34.43 206.69-35 207.54-35Z" opacity="1" transform="matrix(1,0,0,1,0,0)" fill="#374151" class="undefined-text-0" data-fill-palette-color="primary" id="text-0"></path></svg></g></svg></g></svg></g></svg></g><g><svg viewBox="0 0 153.74347749112465 153.74347749112465" height="153.74347749112465" width="153.74347749112465"><g><svg></svg></g><g id="icon-0"><svg viewBox="0 0 153.74347749112465 153.74347749112465" height="153.74347749112465" width="153.74347749112465"><g><path d="M0 76.872c0-42.455 34.417-76.872 76.872-76.872 42.455 0 76.872 34.417 76.871 76.872 0 42.455-34.417 76.872-76.871 76.871-42.455 0-76.872-34.417-76.872-76.871zM76.872 148.049c39.31 0 71.177-31.867 71.177-71.177 0-39.31-31.867-71.177-71.177-71.178-39.31 0-71.177 31.867-71.178 71.178 0 39.31 31.867 71.177 71.178 71.177z" data-fill-palette-color="accent" fill="#374151" stroke="transparent"></path></g><g transform="matrix(1,0,0,1,32.38620502099833,56.28237174329069)"><svg viewBox="0 0 88.97106744912799 41.17873400454327" height="41.17873400454327" width="88.97106744912799"><g><svg xmlns="http://www.w3.org/2000/svg" xmlns:xlink="http://www.w3.org/1999/xlink" version="1.0" x="0" y="0" viewBox="10.78799819946289 27.714618682861328 77.58390808105469 35.908382415771484" enable-background="new 0 0 100 100" xml:space="preserve" width="88.97106744912799" height="41.17873400454327" class="icon-s-0" data-fill-palette-color="accent" id="s-0"><g fill="#374151" data-fill-palette-color="accent"><line fill="none" stroke="#374151" stroke-linecap="round" stroke-miterlimit="10" x1="11.854" y1="58.991" x2="65.89" y2="58.991"></line><line fill="none" stroke="#374151" stroke-linecap="round" stroke-miterlimit="10" x1="11.854" y1="63.037" x2="65.89" y2="63.037"></line><path d="M68.438 57.824c-0.008 2.443 0 5.799 0 5.799s5.952-0.131 9.666-1.011c3.713-0.879 3.02-0.913 6.092-2.182 3.484-1.439 4.266-3.388 4.168-3.975-0.098-0.586-0.551-2.528-1.271-2.803-0.432-0.163-1.441-0.141-1.977-0.027-0.585 0.125-2.42 0.974-2.812 1.169-0.391 0.196-0.754 0.468-2.109 0.888-2.213 0.687-3.362 0.99-5.219 1.42C73.121 57.531 68.438 57.824 68.438 57.824" fill="#374151" data-fill-palette-color="accent"></path><path d="M73.771 53.421c0.263 1.408-0.26 1.538 2.345 1.408 2.608-0.132 2.347-0.116 4.953-0.718 2.995-0.69 4.168-1.617 4.037-2.138-0.13-0.522-1.703-0.884-2.474-1.053-2.972-0.657-3.78-0.782-5.344-1.043-1.563-0.261-1.041-0.391-2.604 0.391C73.121 51.051 73.512 52.014 73.771 53.421z" fill="#374151" data-fill-palette-color="accent"></path><path d="M46.894 43.179c-0.366 0.431-1.015 0.485-1.446 0.118l0 0c-0.432-0.367-0.484-1.015-0.117-1.446l3.206-3.776c0.366-0.432 1.015-0.485 1.446-0.119l0 0c0.432 0.368 0.485 1.016 0.118 1.447L46.894 43.179z" fill="#374151" data-fill-palette-color="accent"></path><path d="M52.18 46.125c-0.349 0.447-0.993 0.527-1.44 0.179l0 0c-0.446-0.348-0.527-0.993-0.179-1.439l3.042-3.91c0.348-0.446 0.993-0.527 1.441-0.179l0 0c0.445 0.348 0.527 0.993 0.18 1.44L52.18 46.125z" fill="#374151" data-fill-palette-color="accent"></path><path d="M57.321 48.648c-0.312 0.473-0.949 0.603-1.423 0.29l0 0c-0.472-0.312-0.602-0.948-0.29-1.42l2.729-4.135c0.312-0.473 0.948-0.603 1.42-0.291l0 0c0.474 0.312 0.605 0.949 0.292 1.421L57.321 48.648z" fill="#374151" data-fill-palette-color="accent"></path><path d="M63.06 51.094c-0.248 0.416-0.843 0.52-1.329 0.232l0 0c-0.488-0.289-0.684-0.861-0.437-1.276l2.153-3.639c0.244-0.417 0.84-0.52 1.328-0.232l0 0c0.487 0.29 0.684 0.86 0.437 1.277L63.06 51.094z" fill="#374151" data-fill-palette-color="accent"></path><path d="M67.553 53.219c-0.225 0.429-0.812 0.562-1.314 0.302l0 0c-0.503-0.261-0.73-0.823-0.506-1.251l1.953-3.75c0.225-0.429 0.812-0.565 1.316-0.302l0 0c0.5 0.261 0.728 0.822 0.503 1.249L67.553 53.219z" fill="#374151" data-fill-palette-color="accent"></path><path d="M32.112 32.681c0 0 2.063 0.545 3.337 1.455 1.368 0.977-0.391 3.031 2.476 4.525 2.966 1.546 2.346 3.295 3.713 2.415 1.368-0.881 2.867-2.415 3.497-3.422 0.626-1 1.909-1.921 0.585-3.583-0.979-1.228-2.029-1.987-3.007-2.769-0.977-0.782-3.916-3.062-5.569-3.288-1.563-0.213-2.443-0.551-3.811 0-1.368 0.551-1.661 0.356-1.857 1.626C31.28 30.912 32.112 32.681 32.112 32.681z" fill="#374151" data-fill-palette-color="accent"></path><g fill="#374151" data-fill-palette-color="accent"><path d="M40.55 42.711c-2.346-1.824-7.557-5.211-8.079-3.191s-3.974 3.451-6.84 4.233-3.958 1.212-8.104-0.411c-1.014-0.397-3.623-2.52-3.623-2.52s-0.847-1.726-2.149 1.661c-1.303 3.387-0.912 10.938-0.912 10.938l0.032 1.766c0 0 53.627 0.03 57.328 0.263C65.648 54.832 42.799 44.46 40.55 42.711zM31.446 54.226c-1.079 0-1.954-0.874-1.954-1.954s0.875-1.954 1.954-1.954c1.08 0 1.955 0.874 1.955 1.954S32.525 54.226 31.446 54.226zM37.659 54.226c-1.079 0-1.954-0.874-1.954-1.954s0.875-1.954 1.954-1.954c1.08 0 1.954 0.874 1.954 1.954S38.739 54.226 37.659 54.226z" fill="#374151" data-fill-palette-color="accent"></path><path d="M68.204 55.449c0.108 0.025 0.194 0.041 0.227 0.03S68.361 55.458 68.204 55.449z" fill="#374151" data-fill-palette-color="accent"></path></g></g></svg></g></svg></g></svg></g></svg></g></svg></g><defs></defs></svg><rect width="395.52" height="105.00964650489084" fill="none" stroke="none" visibility="hidden"></rect></g></svg></g></svg>